<?xml version="1.0" encoding="UTF-8"?>
<svg width="108px" height="108px" viewBox="0 0 108 108" version="1.1" xmlns="http://www.w3.org/2000/svg" xmlns:xlink="http://www.w3.org/1999/xlink">
    <!-- Generator: Sketch 52.6 (67491) - http://www.bohemiancoding.com/sketch -->
    <title>Combined Shape</title>
    <desc>Created with Sketch.</desc>
    <g id="Page-1" stroke="none" stroke-width="1" fill="none" fill-rule="evenodd">
        <path d="M41.7675781,106.608619 L41.7675781,77.2792969 L52.6425781,77.2792969 C63.7441961,77.2792969 72.0986048,74.485054 77.7060547,68.8964844 C83.3135046,63.3079148 86.1171875,56.3978276 86.1171875,48.1660156 C86.1171875,43.2948975 85.1448665,39.0185731 83.2001953,35.3369141 C81.2555241,31.655255 78.3668811,28.8610121 74.5341797,26.9541016 C70.7014782,25.047191 64.1217914,24.09375 54.7949219,24.09375 L30.3261719,24.09375 L30.3261719,102.547603 C12.3689861,93.7745246 0,75.331728 0,54 C0,24.1766235 24.1766235,0 54,0 C83.8233765,0 108,24.1766235 108,54 C108,83.8233765 83.8233765,108 54,108 C49.7928109,108 45.6979966,107.518866 41.7675781,106.608619 Z M41.7675781,68.5 L41.7675781,32.9296875 L55.0214844,32.9296875 C62.6868873,32.9296875 67.8128126,34.374009 70.3994141,37.2626953 C72.9860155,40.1513816 74.2792969,43.9557056 74.2792969,48.6757812 C74.2792969,54.1133084 72.6744952,58.7766733 69.4648438,62.6660156 C66.2551923,66.555358 59.5905454,68.5 49.4707031,68.5 L41.7675781,68.5 Z" id="Combined-Shape" fill="#000000"></path>
    </g>
</svg>