<svg width="448" height="84" xmlns="http://www.w3.org/2000/svg">
    <g fill="#000" fill-rule="evenodd">
        <path d="M.91 84V.965H23c8.232 0 13.613.396 16.143 1.19 4.04 1.283 7.372 4.02 9.997 8.212 2.624 4.192 3.936 9.591 3.936 16.2 0 6.003-1.133 11.035-3.398 15.094-2.266 4.06-5.098 6.91-8.496 8.553-3.399 1.642-9.252 2.464-17.559 2.464h-9.006V84H.91zm13.707-68.988v23.562h7.59c5.098 0 8.562-.359 10.394-1.076 1.831-.717 3.332-2.01 4.503-3.88 1.17-1.869 1.755-4.163 1.755-6.882 0-2.756-.604-5.078-1.812-6.966-1.208-1.888-2.7-3.153-4.475-3.795-1.774-.642-5.532-.963-11.271-.963h-6.684z" />
        <path d="M64.404 84V.965h50.524v14.047H78.11V33.42h34.211v13.99h-34.21v22.6h38.062V84z" />
        <path d="M127.842 84V.965h28.943c7.401 0 12.688.746 15.86 2.237 3.171 1.492 5.777 4.078 7.816 7.76 2.039 3.682 3.059 8.09 3.059 13.226 0 6.494-1.558 11.724-4.673 15.689-3.116 3.965-7.543 6.457-13.283 7.477 2.946 2.114 5.381 4.427 7.307 6.938 1.926 2.511 4.55 7.014 7.873 13.509L189.014 84h-16.37l-9.968-18.068c-3.587-6.533-6.023-10.62-7.307-12.263-1.284-1.643-2.643-2.775-4.078-3.398-1.435-.624-3.738-.935-6.91-.935h-2.832V84h-13.707zm13.707-47.918h10.195c6.23 0 10.195-.274 11.895-.821 1.699-.548 3.077-1.652 4.134-3.314 1.058-1.661 1.586-3.87 1.586-6.627 0-2.643-.528-4.767-1.586-6.372-1.057-1.605-2.492-2.71-4.304-3.313-1.284-.416-5.003-.623-11.158-.623h-10.762v21.07z" />
        <path d="M196.49 84V.965h50.524v14.047h-36.817V33.42h34.211v13.99h-34.21v22.6h38.062V84z" />
        <path d="M277.26 84L252.96.965h14.897l17.22 61.455L301.728.965h14.613L291.986 84z" />
        <path d="M323.365 84V.965h50.524v14.047h-36.817V33.42h34.211v13.99h-34.21v22.6h38.062V84z" />
        <path d="M386.803 84V.965h28.943c7.401 0 12.688.746 15.86 2.237 3.171 1.492 5.777 4.078 7.816 7.76 2.039 3.682 3.058 8.09 3.058 13.226 0 6.494-1.557 11.724-4.672 15.689-3.116 3.965-7.543 6.457-13.283 7.477 2.946 2.114 5.381 4.427 7.307 6.938 1.926 2.511 4.55 7.014 7.873 13.509L447.975 84h-16.37l-9.968-18.068c-3.588-6.533-6.023-10.62-7.307-12.263-1.284-1.643-2.643-2.775-4.078-3.398-1.435-.624-3.738-.935-6.91-.935h-2.832V84h-13.707zm13.707-47.918h10.195c6.23 0 10.195-.274 11.895-.821 1.699-.548 3.077-1.652 4.134-3.314 1.058-1.661 1.586-3.87 1.586-6.627 0-2.643-.528-4.767-1.586-6.372-1.057-1.605-2.492-2.71-4.304-3.313-1.284-.416-5.004-.623-11.159-.623H400.51v21.07z" />
    </g>
</svg>